<svg width="13" height="18" viewBox="0 0 13 18" fill="none" xmlns="http://www.w3.org/2000/svg">
<path d="M3.64286 12.3023V13.6119C3.64286 15.1898 4.92204 16.469 6.5 16.469V16.469C8.07796 16.469 9.35714 15.1898 9.35714 13.6119V12.3023M3.64286 12.3023V11.9316C3.64286 11.29 3.31521 10.7043 2.88089 10.2319C2.02531 9.3014 1.5 8.04141 1.5 6.65418C1.5 3.79048 3.73858 1.46899 6.5 1.46899C9.26142 1.46899 11.5 3.79048 11.5 6.65418C11.5 8.04141 10.9747 9.3014 10.1191 10.2319C9.68479 10.7043 9.35714 11.29 9.35714 11.9316V12.3023M3.64286 12.3023H9.35714" stroke="#FFD147" stroke-width="1.5" stroke-linecap="round" stroke-linejoin="round"/>
</svg>
